<?xml version="1.0" standalone="no"?>
<!DOCTYPE svg PUBLIC "-//W3C//DTD SVG 20010904//EN"
 "http://www.w3.org/TR/2001/REC-SVG-20010904/DTD/svg10.dtd">
<svg version="1.0" xmlns="http://www.w3.org/2000/svg"
 width="48.000000pt" height="48.000000pt" viewBox="0 0 48.000000 48.000000"
 preserveAspectRatio="xMidYMid meet">

<g transform="translate(0.000000,48.000000) scale(0.100000,-0.100000)"
fill="#000000" stroke="none">
<path d="M94 397 c-2 -7 -3 -87 -2 -177 l3 -165 145 0 145 0 0 175 0 175 -34
3 c-21 2 -31 0 -26 -7 3 -6 15 -11 26 -11 18 0 19 -8 19 -123 l0 -123 -33 -32
c-32 -32 -34 -32 -130 -32 l-97 0 0 155 c0 147 1 155 19 155 11 0 23 5 26 10
4 6 -7 10 -25 10 -17 0 -33 -6 -36 -13z"/>
</g>
</svg>
