<?xml version="1.0" encoding="UTF-8" standalone="no"?>
<!-- Created with Inkscape (http://www.inkscape.org/) -->

<svg
   width="30.559227mm"
   height="16.721672mm"
   viewBox="0 0 30.559227 16.721672"
   version="1.1"
   id="svg5"
   xml:space="preserve"
   inkscape:export-filename="bitmap.svg"
   inkscape:export-xdpi="96"
   inkscape:export-ydpi="96"
   xmlns:inkscape="http://www.inkscape.org/namespaces/inkscape"
   xmlns:sodipodi="http://sodipodi.sourceforge.net/DTD/sodipodi-0.dtd"
   xmlns="http://www.w3.org/2000/svg"
   xmlns:svg="http://www.w3.org/2000/svg"><sodipodi:namedview
     id="namedview7"
     pagecolor="#505050"
     bordercolor="#eeeeee"
     borderopacity="1"
     inkscape:showpageshadow="0"
     inkscape:pageopacity="0"
     inkscape:pagecheckerboard="0"
     inkscape:deskcolor="#505050"
     inkscape:document-units="mm"
     showgrid="false" /><defs
     id="defs2" /><g
     inkscape:label="Capa 1"
     inkscape:groupmode="layer"
     id="layer1"
     transform="translate(-53.204255,-101.63916)"><g
       transform="matrix(0.03527778,0,0,-0.03527778,33.417684,145.38361)"
       fill="#000000"
       stroke="none"
       id="g27"
       style="fill:#ffffff"><path
         d="m 850,1225 c 0,-13 23,-15 150,-15 127,0 150,2 150,15 0,13 -23,15 -150,15 -127,0 -150,-2 -150,-15 z"
         id="path9"
         style="fill:#ffffff" /><path
         d="m 792,1128 c -7,-7 -12,-18 -12,-25 0,-7 -5,-13 -11,-13 -6,0 -8,-8 -4,-19 8,-26 -15,-111 -31,-118 -20,-7 -17,-23 4,-23 28,0 41,19 53,82 7,37 17,58 25,58 8,0 14,5 14,10 0,6 -4,10 -10,10 -5,0 -10,5 -10,10 0,6 7,10 15,10 8,0 15,7 15,15 0,18 -31,20 -48,3 z"
         id="path11"
         style="fill:#ffffff" /><path
         d="m 584,1103 c -3,-16 -10,-44 -15,-63 -12,-48 -11,-60 5,-60 10,0 20,24 30,69 19,85 19,81 1,81 -8,0 -17,-12 -21,-27 z"
         id="path13"
         style="fill:#ffffff" /><path
         d="m 1035,1118 c -8,-24 -25,-103 -25,-120 0,-14 8,-18 38,-18 49,0 82,31 65,60 -10,14 -9,21 2,30 21,17 19,37 -4,50 -27,14 -71,13 -76,-2 z m 55,-33 c 0,-8 -7,-15 -15,-15 -8,0 -15,7 -15,15 0,8 7,15 15,15 8,0 15,-7 15,-15 z m -10,-59 c 0,-14 -24,-29 -33,-19 -3,3 -3,11 0,19 7,18 33,18 33,0 z"
         id="path15"
         style="fill:#ffffff" /><path
         d="m 1165,1118 c -8,-24 -25,-103 -25,-120 0,-29 65,-24 95,7 32,31 35,99 6,115 -27,14 -71,13 -76,-2 z m 63,-48 c 3,-30 -19,-64 -39,-59 -23,6 -4,91 19,87 10,-2 18,-14 20,-28 z"
         id="path17"
         style="fill:#ffffff" /><path
         d="m 1306,1118 c -10,-31 -26,-108 -26,-122 0,-9 6,-16 14,-16 9,0 16,17 21,51 8,57 16,55 34,-8 8,-31 17,-43 31,-43 15,0 21,12 30,58 6,31 14,65 16,75 3,10 0,17 -9,17 -10,0 -20,-19 -28,-52 l -12,-53 -17,50 c -16,49 -45,72 -54,43 z"
         id="path19"
         style="fill:#ffffff" /><path
         d="m 644,1076 c -2,-6 -8,-30 -13,-53 -8,-37 -7,-43 8,-43 12,0 20,13 27,42 5,23 15,44 23,46 11,4 13,-4 8,-42 -5,-35 -3,-46 7,-46 15,0 38,74 29,96 -6,16 -83,16 -89,0 z"
         id="path21"
         style="fill:#ffffff" /><path
         d="m 852,1078 c -36,-46 -19,-101 31,-96 66,6 74,108 8,108 -16,0 -33,-6 -39,-12 z m 46,-40 c -3,-33 -22,-49 -30,-26 -7,18 9,58 22,58 7,0 10,-13 8,-32 z"
         id="path23"
         style="fill:#ffffff" /><path
         d="m 948,840 c -2,-39 0,-70 4,-70 4,0 15,11 24,25 l 17,26 28,-27 29,-28 v 72 72 h -49 -49 z"
         id="path25"
         style="fill:#ffffff" /></g></g></svg>
