<svg version="1.2" xmlns="http://www.w3.org/2000/svg" viewBox="0 0 298 169" width="298" height="169">
	<title>send-svg</title>
	<style>
		.s0 { fill: #ffffff } 
	</style>
	<g id="Layer">
		<path id="Layer" class="s0" d="m229.2 3.1c6.1-0.2 6.1-0.5-12.2 66.7-18.4 67.3-20.9 76.2-21.4 76.2-0.2 0-14.5-5.7-31.7-12.6-18.1-7.2-32.1-13.4-33.1-14.6-2.9-3.3-2.2-7.3 2-12 3.9-4.5 58.3-62.9 66.1-71 2.4-2.6 4.3-5 4-5.3-0.3-0.2-21.2 15.8-46.5 35.6-25.2 19.9-47.3 36.8-49.1 37.5-6.5 2.8-14.7 1.8-27.7-3.2-15.4-6-18-8.5-13.4-12.5 1.3-1.1 37.9-20.6 81.3-43.4 45-23.6 80.2-41.4 81.7-41.4z"/>
		<path id="Layer" class="s0" d="m123.9 126.9c10.4 4.2 13.7 6.5 14.7 10.5 1 4.1-0.1 6.6-7.7 18.2l-7.1 10.8-1.8-5c-0.9-2.7-4.3-11.2-7.4-18.9-5.9-14.7-6.3-16.4-4.4-18.3 1.8-1.8 3.5-1.5 13.7 2.7z"/>
	</g>
</svg>