<?xml version="1.0" standalone="no"?>
<!DOCTYPE svg PUBLIC "-//W3C//DTD SVG 20010904//EN"
 "http://www.w3.org/TR/2001/REC-SVG-20010904/DTD/svg10.dtd">
<svg version="1.0" xmlns="http://www.w3.org/2000/svg"
 width="298.000000pt" height="169.000000pt" viewBox="0 0 298.000000 169.000000"
 preserveAspectRatio="xMidYMid meet">

<g transform="translate(0.000000,169.000000) scale(0.100000,-0.100000)"
fill="#000000" stroke="none">
<path d="M1475 1245 c-434 -228 -800 -423 -813 -434 -46 -40 -20 -65 134 -125
130 -50 212 -60 277 -32 18 7 239 176 491 375 253 198 462 358 465 356 3 -3
-16 -27 -40 -53 -78 -81 -622 -665 -661 -710 -42 -47 -49 -87 -20 -120 10 -12
150 -74 331 -146 172 -69 315 -126 317 -126 5 0 30 89 214 762 183 672 183
669 122 667 -15 0 -367 -178 -817 -414z"/>
<path d="M1102 448 c-19 -19 -15 -36 44 -183 31 -77 65 -162 74 -189 l18 -50
71 108 c76 116 87 141 77 182 -10 40 -43 63 -147 105 -102 42 -119 45 -137 27z"/>
</g>
</svg>
